PathFileType	4	(X/Y/Z)	C:\Users\Basilio\Documents\Thesis Gigler\squatting_fais\c3dfiles\019\SJ_pre4\markers_experimental.trc
DataRate	CameraRate	NumFrames	NumMarkers	Units	OrigDataRate	OrigDataStartFrame	OrigNumFrames
200.000000	200.000000	4	59	mm	200.000000	981	1308
Frame#	Time	LBHD			RBHD			C7			T10			CLAV			LSHO			LUUPA			LMUPA			LDUPA			LLEP			LMEP			LRAD			LUL			LRFIN			RSHO			RUPA1			RMUPA			RDUPA			RLEP			RMEP			RRAD			RUL			RUFIN			LASI			USACR			LSACR			RSACR			LTHI1			LTHI2			LTHI3			LTHI4			LLFC			LTIB1			LTIB2			LTIB3			LTIB4			LLMAL			LMMAL			LHEE			LMT1			LMT2			LMT5			RTHI			RTHI2			RTHI3			RTHI4			RLFC			RTIB1			RTIB2			RTIB3			RTIB4			RLMAL			RMMAL			RHEE			RMT1			RMT2			RMT5			FHD			RASI			
		X1	Y1	Z1	X2	Y2	Z2	X3	Y3	Z3	X4	Y4	Z4	X5	Y5	Z5	X6	Y6	Z6	X7	Y7	Z7	X8	Y8	Z8	X9	Y9	Z9	X10	Y10	Z10	X11	Y11	Z11	X12	Y12	Z12	X13	Y13	Z13	X14	Y14	Z14	X15	Y15	Z15	X16	Y16	Z16	X17	Y17	Z17	X18	Y18	Z18	X19	Y19	Z19	X20	Y20	Z20	X21	Y21	Z21	X22	Y22	Z22	X23	Y23	Z23	X24	Y24	Z24	X25	Y25	Z25	X26	Y26	Z26	X27	Y27	Z27	X28	Y28	Z28	X29	Y29	Z29	X30	Y30	Z30	X31	Y31	Z31	X32	Y32	Z32	X33	Y33	Z33	X34	Y34	Z34	X35	Y35	Z35	X36	Y36	Z36	X37	Y37	Z37	X38	Y38	Z38	X39	Y39	Z39	X40	Y40	Z40	X41	Y41	Z41	X42	Y42	Z42	X43	Y43	Z43	X44	Y44	Z44	X45	Y45	Z45	X46	Y46	Z46	X47	Y47	Z47	X48	Y48	Z48	X49	Y49	Z49	X50	Y50	Z50	X51	Y51	Z51	X52	Y52	Z52	X53	Y53	Z53	X54	Y54	Z54	X55	Y55	Z55	X56	Y56	Z56	X57	Y57	Z57	X58	Y58	Z58	X59	Y59	Z59	

982	4.905	-47.6252784729004	1124.895629882813	-1033.27734375	-54.04436111450197	1119.174682617188	-894.4234619140627	-129.3802337646485	1004.944946289063	-970.0093383789065	-341.9621582031251	808.4625244140627	-982.4001464843752	-36.15477752685548	880.009948730469	-962.339538574219	-53.50167846679689	949.538269042969	-1116.380859375	-146.5059814453125	854.3198242187502	-1232.165771484375	-173.6873321533203	818.1184692382815	-1212.421875	-194.6786804199219	823.1823730468752	-1267.57177734375	-252.7937774658204	811.6678466796877	-1329.400268554688	-311.4381103515626	852.5834960937502	-1312.856079101563	-398.0103454589845	653.1330566406251	-1198.582885742188	-384.599822998047	611.0005493164064	-1249.576416015625	-363.2361145019532	631.5984497070314	-1162.697387695313	-70.28918457031251	949.5755615234377	-826.1025390625002	-201.6744537353516	927.5048828125002	-689.4075317382814	-204.4667510986329	874.1048583984377	-684.2184448242189	-246.1313934326172	895.4752197265627	-643.8497314453126	-300.9166259765626	841.7749023437502	-608.6146850585939	-353.8849182128907	883.6468505859377	-634.6692504882814	-407.4619445800782	670.7282714843751	-768.956970214844	-389.1646728515626	627.9680175781251	-718.6463623046876	-365.7637939453126	641.3723754882814	-807.8425903320315	-337.3937683105469	599.2946166992189	-1091.911865234375	-444.7745666503907	712.0070800781251	-990.0761718750002	-467.4160766601564	688.0223388671876	-1017.809326171875	-467.469940185547	687.1956787109376	-961.662536621094	-310.5929565429688	476.7880249023439	-1219.3544921875	-226.5959777832032	482.5896911621095	-1235.935180664063	-203.5603790283204	519.7484130859376	-1216.062866210938	-187.6096649169922	436.0943298339845	-1247.4853515625	-118.5442199707032	393.5148010253907	-1249.826049804688	-115.8353500366211	255.4745178222657	-1233.910766601563	-193.4629516601563	254.6880645751954	-1277.615966796875	-162.1665191650391	231.6611938476563	-1258.555419921875	-209.3483123779297	167.5988006591797	-1225.058471679688	-342.9114379882813	102.6959228515625	-1244.060791015625	-310.5335388183594	90.86235809326173	-1162.565063476563	-403.5213317871095	48.14416503906251	-1187.552490234375	-195.6580352783204	52.35736083984376	-1222.641357421875	-202.5187683105469	54.21415328979494	-1261.098754882813	-252.7867279052735	34.27330780029298	-1306.441040039063	-377.2761840820313	534.2821044921876	-772.4230957031252	-313.7257385253907	545.4808349609376	-765.9295654296876	-302.2593994140626	563.6022338867189	-792.9295043945315	-259.8734130859376	499.9979553222657	-726.2817382812501	-144.0683898925782	408.1869506835939	-694.3394165039064	-153.771713256836	231.3228607177735	-721.9296264648439	-257.2718811035157	205.8687744140626	-687.9093017578126	-220.7435150146485	183.4809875488282	-708.1019897460939	-237.2155914306641	138.6124114990235	-746.9863891601564	-346.1849365234376	103.7619781494141	-721.5952148437501	-303.0812377929688	87.47759246826173	-789.964050292969	-397.4664611816407	48.14773178100587	-784.0674438476565	-200.8574829101563	49.11556625366212	-712.1326293945314	-216.8688659667969	57.23812866210939	-669.9044189453126	-274.5232849121094	41.76800918579102	-635.9735717773439	83.84317016601564	1128.517333984375	-889.044616699219	-343.1574707031251	584.2025756835939	-896.4629516601565	
983	4.91	-47.13472366333009	1121.455200195313	-1033.605712890625	-53.35451889038087	1115.66357421875	-894.691101074219	-128.9490051269532	1001.998046875	-970.5909423828127	-342.3498840332032	806.5300292968752	-982.538513183594	-36.19464874267579	876.6307373046877	-962.5794067382815	-53.3719940185547	946.0438232421877	-1116.601684570313	-147.148178100586	851.7006835937502	-1232.346069335938	-174.0508880615235	815.4652099609377	-1212.761596679688	-195.2796783447266	820.7046508789065	-1267.9111328125	-253.2916412353516	809.5551757812502	-1329.459106445313	-311.9623413085938	850.777526855469	-1312.966674804688	-399.3215942382814	651.7731323242189	-1198.730834960938	-385.9797668457032	609.6109008789064	-1249.667846679688	-364.4084777832032	630.2978515625001	-1162.681030273438	-70.07776641845705	946.7319946289065	-826.557312011719	-201.3790130615235	925.0005493164065	-689.4311523437501	-204.4105682373047	871.7647094726565	-684.1741943359376	-246.0119781494141	893.445495605469	-643.9598999023439	-300.9709167480469	839.9791259765627	-608.5078735351564	-353.5930480957032	882.1912841796877	-634.4299926757814	-408.2146911621095	669.8717651367189	-769.2238769531252	-390.2620849609376	626.8311767578126	-718.6120605468751	-366.9689025878907	640.2536621093751	-808.468933105469	-338.8038940429688	597.8649291992189	-1091.838623046875	-445.196746826172	710.3295288085939	-990.1397705078127	-468.7495422363282	686.8645019531251	-1017.810607910156	-468.7110595703126	685.7715454101564	-961.6765136718752	-311.8339233398438	476.7894592285157	-1219.300537109375	-227.6701202392579	482.8863220214845	-1235.626953125	-204.8737792968751	520.0108032226564	-1215.505249023438	-188.5196838378907	436.5959472656251	-1247.41650390625	-119.2229080200196	394.0679626464845	-1249.621826171875	-116.5927200317383	256.0294494628907	-1233.695068359375	-193.9674072265626	255.2013244628907	-1277.541015625	-162.4793701171875	232.0784149169922	-1258.440673828125	-209.5511322021485	168.068099975586	-1225.045532226563	-342.9666442871094	102.7297592163086	-1244.224975585938	-310.7030029296876	90.96436309814455	-1162.753662109375	-403.5367431640626	48.16198348999025	-1187.603515625	-195.5769042968751	53.0680618286133	-1222.40087890625	-202.4901428222657	54.23949813842775	-1261.13916015625	-252.8061523437501	34.24570083618165	-1306.482421875	-378.9146118164063	533.7418212890626	-772.8940429687502	-315.5477600097657	544.9162597656251	-766.2973632812501	-304.0893249511719	562.9113159179689	-793.2458496093752	-261.1829833984376	499.6264953613282	-726.7090454101564	-145.10400390625	408.5712890625001	-694.5968627929689	-154.2203521728516	231.7278900146485	-722.0596313476564	-257.6770324707032	206.0612792968751	-687.9122314453126	-221.072250366211	183.7334594726563	-708.1528930664064	-237.5334472656251	138.9087066650391	-747.1405029296876	-346.0722351074219	103.8573760986328	-721.5069580078126	-303.1672058105469	87.49565887451173	-789.850524902344	-397.4500427246095	47.9901351928711	-784.013366699219	-200.9663543701172	49.16989517211915	-712.1184082031251	-216.8012695312501	57.26514816284181	-669.9163818359376	-274.4732055664063	41.72664642333985	-635.9083251953126	84.6001663208008	1125.039306640625	-889.3184814453127	-345.0791931152344	581.6877441406251	-896.691833496094	
984	4.915	-47.3934669494629	1118.611450195313	-1033.857543945313	-52.76307296752931	1112.513061523438	-894.9307861328127	-128.4635467529297	999.3392333984377	-970.519958496094	-342.9601135253907	805.058532714844	-982.4368896484377	-36.71821212768555	873.611267089844	-962.7930908203127	-53.29735946655275	943.091979980469	-1116.835815429688	-146.9874114990235	849.3786621093752	-1232.8623046875	-174.582015991211	813.1842041015627	-1213.230834960938	-195.7074432373047	818.8693847656252	-1268.338623046875	-254.0625152587891	807.9473876953127	-1329.81298828125	-312.4710083007813	849.3807373046877	-1313.20947265625	-400.4667053222657	650.6627807617189	-1198.84375	-387.2103271484376	608.3886718750001	-1249.813842773438	-365.7048034667969	629.3074340820314	-1162.848876953125	-69.83243560791017	943.8237915039065	-826.7656250000002	-201.3387298583985	923.363952636719	-689.5270385742189	-204.4623565673829	869.9562988281252	-684.1625976562501	-245.9012756347657	891.754333496094	-644.0146484375001	-301.0898437500001	838.7073364257815	-608.5098876953126	-353.6392822265626	880.9858398437502	-634.3877563476564	-408.9464721679689	669.0731201171876	-769.6029052734377	-391.2000122070314	626.0677490234376	-719.3576660156251	-367.7015075683594	639.3712158203126	-808.8914794921877	-340.4207153320313	596.7904663085939	-1091.789672851563	-446.0524291992189	709.0245361328126	-990.1606445312502	-469.3238220214845	685.4634399414064	-1017.888671875	-469.816619873047	684.7203979492189	-961.663757324219	-313.0964050292969	476.915496826172	-1219.428955078125	-228.8727264404297	483.2904357910157	-1235.416748046875	-206.2775878906251	520.3556518554689	-1215.080932617188	-189.4973907470703	437.1875305175782	-1247.34326171875	-120.0591888427735	394.7102661132814	-1249.450317382813	-117.2086181640625	256.5046997070313	-1233.62451171875	-194.5122375488282	255.7047729492188	-1277.466064453125	-162.9038696289063	232.7514343261719	-1258.38427734375	-209.8227539062501	168.4877166748047	-1225.015869140625	-342.9898986816407	102.7040405273438	-1244.342041015625	-310.8765258789063	91.12041473388673	-1162.524047851563	-403.5306396484376	48.09252548217775	-1187.653198242188	-195.5784912109376	52.95768356323244	-1222.554443359375	-202.4589538574219	54.27477264404298	-1261.1630859375	-252.8111877441407	34.22978973388673	-1306.484619140625	-380.3065185546876	532.7686767578126	-772.9940185546877	-317.0246887207032	544.3402709960939	-766.6260986328126	-305.7560729980469	562.4303588867189	-793.4952392578127	-262.6096191406251	499.3870849609376	-727.0183715820314	-146.01708984375	408.8997192382814	-694.8187255859376	-154.746810913086	231.9665832519532	-722.2768554687501	-257.1644592285157	205.8172302246094	-687.4749755859376	-219.5500793457032	183.7363586425782	-706.6370239257814	-236.8785400390626	143.5092926025391	-748.8740844726564	-346.1950683593751	103.7744445800782	-721.3994750976564	-303.7826232910157	87.43482208251955	-789.7471923828127	-397.6237182617189	47.95562744140626	-783.9275512695315	-201.0576629638672	49.18298721313478	-712.1287231445314	-217.0206604003907	57.38859176635744	-669.8749389648439	-273.7834167480469	41.14413070678712	-635.8464355468751	85.21740722656251	1121.77587890625	-889.6108398437502	-346.2322692871094	580.1318969726564	-896.8884887695315	
985	4.92	-46.70896148681641	1115.76611328125	-1034.2333984375	-51.97786712646486	1109.668701171875	-895.167907714844	-128.5559997558594	997.2673950195315	-971.1585083007815	-343.4263610839844	803.6152343750002	-982.4666137695315	-36.68117904663087	870.7769775390627	-963.0017089843752	-53.1986427307129	940.498229980469	-1117.103393554688	-148.0316467285157	847.4034423828127	-1232.735229492188	-175.1408233642578	811.3840332031252	-1213.522827148438	-196.182113647461	817.0144653320315	-1268.535522460938	-254.9175720214844	806.4454345703127	-1329.696655273438	-312.8683776855469	848.062194824219	-1313.360229492188	-402.0304565429689	649.9777221679689	-1198.9990234375	-388.3193664550782	607.3196411132814	-1249.896118164063	-367.2380676269532	628.7836914062501	-1162.826171875	-69.45062255859376	941.1600341796877	-826.6707763671877	-201.2076110839844	921.5930175781252	-689.6827392578126	-204.5178985595704	868.1409301757815	-684.1397705078126	-246.0267791748047	890.447204589844	-644.0692138671876	-301.4545288085938	837.638854980469	-608.4074707031251	-353.7831115722657	880.060241699219	-634.4111938476564	-409.7922973632814	668.5220947265626	-770.089050292969	-392.1271972656251	625.5590820312501	-719.9129028320314	-368.7237548828126	638.5839233398439	-809.3977661132815	-341.5543518066407	595.6005859375001	-1092.017944335938	-447.5943908691407	708.3312377929689	-989.9755859375002	-470.7530822753907	684.8576660156251	-1017.779724121094	-470.771697998047	683.7634277343751	-961.4319458007815	-314.6066894531251	477.0106201171876	-1219.581176757813	-230.2883911132813	483.8504943847657	-1235.26123046875	-207.2765350341797	520.4324951171876	-1214.707275390625	-190.71875	437.8770141601564	-1247.346069335938	-121.0841445922852	395.4011840820314	-1249.276733398438	-117.1876678466797	256.7747192382813	-1233.695190429688	-194.8755493164063	256.2817687988282	-1277.40771484375	-163.2738342285157	233.2453155517579	-1258.315551757813	-207.6502990722657	162.2269134521485	-1222.367431640625	-343.1343994140626	102.6818084716797	-1244.441284179688	-310.9863586425782	91.16434478759767	-1162.597412109375	-403.5805664062501	48.10255813598634	-1187.6689453125	-195.6125030517579	53.02369308471681	-1222.579711914063	-202.4831237792969	54.31258773803712	-1261.165405273438	-252.789779663086	34.20956039428712	-1306.516235351563	-381.9703369140626	532.1060791015626	-773.2340087890627	-318.4622192382813	543.7210083007814	-766.8538818359376	-307.2187194824219	562.0303344726564	-793.671081542969	-264.1981201171876	499.1432495117189	-727.3193969726564	-147.0726318359375	409.236053466797	-694.9735717773439	-155.2005615234375	232.2593536376954	-722.3392944335939	-258.7984924316407	206.2773590087891	-687.7330322265626	-221.8375091552735	184.1241607666016	-708.2739868164064	-237.8946838378907	139.393539428711	-747.3569946289064	-346.7441101074219	103.617904663086	-721.2386474609376	-303.3948669433594	87.55257415771486	-789.6724243164065	-397.6566162109376	47.79438018798829	-783.8294067382815	-201.0542297363282	49.2186622619629	-712.1434936523439	-216.9539337158204	57.38703536987306	-669.8889160156251	-274.6128540039063	41.7468490600586	-635.8973999023439	85.86584472656251	1118.962646484375	-889.927917480469	-347.1311950683594	579.4261474609376	-896.9712524414065	
